<svg xmlns="http://www.w3.org/2000/svg" width="270" height="70" fill="none" xmlns:v="https://vecta.io/nano"><path d="M.32 69h3.949v-4.318h2.188c3.317 0 5.54-1.953 5.54-5.085 0-3.097-2.166-5.142-5.398-5.142H.32V69zm3.949-7.386v-4.006h1.392c1.385 0 2.216.739 2.216 1.989 0 1.243-.831 2.017-2.216 2.017H4.269zM13.445 69h3.949v-4.801h1.364L21.315 69h4.29l-2.954-5.426c1.548-.746 2.472-2.159 2.472-4.176 0-3.097-2.166-4.943-5.398-4.943h-6.278V69zm3.949-7.869v-3.523h1.392c1.385 0 2.216.54 2.216 1.79 0 1.243-.831 1.733-2.216 1.733h-1.392zM30.583 69l.838-2.784h4.801L37.061 69h4.261l-4.801-14.546h-5.398L26.322 69h4.261zm1.733-5.739l1.449-4.801h.114l1.449 4.801h-3.011zm23.303-3.352c-.312-3.608-2.955-5.653-6.619-5.653-3.92 0-7.017 2.614-7.017 7.472 0 4.837 3.011 7.471 7.017 7.471 4.261 0 6.42-2.954 6.619-5.426l-4.006-.028c-.199 1.243-1.08 2.017-2.528 2.017-1.925 0-3.04-1.364-3.04-4.034 0-2.529 1.08-4.034 3.068-4.034 1.52 0 2.386.895 2.5 2.216h4.006zm1.393-2.273h4.375V69h3.892V57.636h4.375v-3.182H57.012v3.182zm18.078-3.181h-3.949V69h3.949V54.455zm15.451 5.454c-.312-3.608-2.955-5.653-6.619-5.653-3.921 0-7.017 2.614-7.017 7.472 0 4.837 3.011 7.471 7.017 7.471 4.261 0 6.42-2.954 6.619-5.426l-4.006-.028c-.199 1.243-1.079 2.017-2.528 2.017-1.925 0-3.04-1.364-3.04-4.034 0-2.529 1.08-4.034 3.068-4.034 1.52 0 2.386.895 2.5 2.216h4.006zm10.399-5.454v8.977c0 1.356-.973 2.329-2.33 2.329a2.24 2.24 0 0 1-2.329-2.329v-8.977h-3.949v9.318c0 3.324 2.514 5.398 6.278 5.398 3.736 0 6.279-2.074 6.279-5.398v-9.318h-3.949zm5.826 0V69h3.863v-8.466h.114l3.239 8.352h2.329l3.239-8.295h.113V69h3.864V54.455h-4.915l-3.38 8.239h-.171l-3.381-8.239h-4.914zM133.161 69l.838-2.784h4.801l.838 2.784h4.262l-4.801-14.546h-5.398L128.9 69h4.261zm1.733-5.739l1.449-4.801h.114l1.449 4.801h-3.012zM145.301 69h3.949v-4.801h1.363L153.17 69h4.29l-2.955-5.426c1.549-.746 2.472-2.159 2.472-4.176 0-3.097-2.166-4.943-5.398-4.943h-6.278V69zm3.949-7.869v-3.523h1.392c1.385 0 2.216.54 2.216 1.79 0 1.243-.831 1.733-2.216 1.733h-1.392zm9.012-3.495h4.375V69h3.892V57.636h4.375v-3.182h-12.642v3.182zm27.559 1.62h3.991c-.305-2.919-2.954-5-6.392-5-3.92 0-7.102 2.699-7.102 7.5 0 4.602 2.884 7.443 7.131 7.443 3.807 0 6.534-2.329 6.534-6.307v-2.017h-6.449v2.813h2.642c-.035 1.264-.93 2.074-2.699 2.074-2.045 0-3.096-1.506-3.096-4.062 0-2.521 1.136-4.006 3.125-4.006 1.235 0 2.074.568 2.315 1.563zM195.153 69l.838-2.784h4.802l.838 2.784h4.261l-4.801-14.546h-5.398L190.892 69h4.261zm1.733-5.739l1.449-4.801h.114l1.449 4.801h-3.012zM207.293 69h9.83v-3.182h-5.881V54.455h-3.949V69zm11.426 0h9.829v-3.182h-5.88V54.455h-3.949V69zm11.426 0h10.454v-3.182h-6.506v-2.5h5.995v-3.182h-5.995v-2.5h6.534v-3.182h-10.482V69zm12.441 0h3.949v-4.801h1.363L250.455 69h4.29l-2.955-5.426c1.549-.746 2.472-2.159 2.472-4.176 0-3.097-2.166-4.943-5.398-4.943h-6.278V69zm3.949-7.869v-3.523h1.392c1.385 0 2.216.54 2.216 1.79 0 1.243-.831 1.733-2.216 1.733h-1.392zm8.13-6.676l5.341 9.972V69h3.92v-4.574l5.341-9.972h-4.403l-2.841 5.909h-.114l-2.84-5.909h-4.404z" fill="#fff"/><path d="M118 2a2 2 0 0 1 2-2h28a2 2 0 0 1 2 2v28a2 2 0 0 1-2 2h-28a2 2 0 0 1-2-2V2z" fill="#0278fe"/><g fill="#2a2c2f"><path d="M150 6h-32v2h32V6z"/><path d="M131 6h-2v26h2V6z"/></g></svg>